<?xml version="1.0" standalone="no"?>
<!DOCTYPE svg PUBLIC "-//W3C//DTD SVG 20010904//EN"
 "http://www.w3.org/TR/2001/REC-SVG-20010904/DTD/svg10.dtd">
<svg version="1.0" xmlns="http://www.w3.org/2000/svg"
 width="1200.000000pt" height="913.000000pt" viewBox="0 0 1200.000000 913.000000"
 preserveAspectRatio="xMidYMid meet">

<g transform="translate(0.000000,913.000000) scale(0.100000,-0.100000)"
fill="#000000" stroke="none">
<path d="M5795 9119 c-405 -42 -809 -235 -1099 -525 -270 -270 -435 -577 -516
-959 -27 -129 -38 -425 -21 -575 81 -694 569 -1297 1235 -1525 389 -133 804
-134 1191 -4 770 260 1281 999 1252 1809 -7 183 -24 293 -72 458 -245 854
-1080 1414 -1970 1321z m195 -629 l80 0 2 237 3 237 55 -2 c185 -9 442 -82
640 -182 106 -53 266 -168 359 -257 l92 -88 -65 -90 c-75 -103 -170 -280 -220
-411 -131 -338 -153 -758 -59 -1119 59 -229 179 -475 316 -648 l30 -38 -39
-41 c-150 -154 -371 -298 -594 -384 -145 -56 -368 -104 -481 -104 l-39 0 0
240 0 240 -80 0 -80 0 0 -241 0 -242 -82 7 c-364 30 -760 216 -1012 474 l-49
51 50 68 c142 194 243 409 299 638 130 535 20 1098 -301 1535 l-46 61 30 35
c43 48 122 117 205 178 238 175 533 288 821 314 l80 7 3 -237 2 -238 80 0z
m-1273 -262 c163 -238 255 -498 287 -810 l6 -58 -351 0 -352 0 7 73 c19 196
73 392 156 565 51 107 173 302 189 302 4 0 31 -33 58 -72z m2671 0 c107 -156
200 -364 243 -544 17 -73 48 -270 49 -311 0 -10 -77 -13 -351 -13 l-352 0 7
73 c18 182 76 394 157 566 49 103 172 301 188 301 5 0 31 -33 59 -72z m-2383
-1095 c-21 -202 -74 -391 -161 -572 -53 -111 -170 -301 -185 -301 -14 0 -129
183 -179 285 -84 171 -145 387 -165 588 l-7 67 352 0 352 0 -7 -67z m2675 46
c0 -43 -32 -236 -51 -314 -29 -115 -84 -257 -136 -355 -53 -98 -152 -250 -164
-250 -4 0 -32 37 -62 83 -164 247 -251 491 -282 795 l-6 62 351 0 350 0 0 -21z"/>
<path d="M5383 8300 c-45 -10 -61 -26 -73 -69 -14 -50 -14 -1853 1 -1903 19
-71 -6 -69 694 -66 l624 3 23 23 c23 22 23 23 26 377 l3 355 -106 0 -105 0 0
-285 0 -285 -475 0 -475 0 2 833 3 832 470 0 470 0 3 -287 2 -288 105 0 105 0
0 345 c0 231 -4 352 -11 368 -24 52 -19 52 -659 54 -327 1 -610 -2 -627 -7z"/>
<path d="M5590 7280 l0 -770 405 0 405 0 0 105 0 105 -300 0 -300 0 0 665 0
665 -105 0 -105 0 0 -770z"/>
<path d="M5870 7420 l0 -630 105 0 105 0 0 195 0 195 55 0 55 0 0 -195 0 -195
105 0 105 0 0 630 0 630 -265 0 -265 0 0 -630z m320 195 l0 -225 -55 0 -55 0
0 225 0 225 55 0 55 0 0 -225z"/>
<path d="M1450 6501 l0 -98 113 -27 c946 -228 1804 -372 2743 -461 137 -12
251 -21 253 -19 3 3 -15 26 -40 52 -25 26 -61 67 -81 92 l-36 46 -188 18
c-599 56 -1365 176 -1998 312 -227 48 -640 145 -717 168 l-49 15 0 -98z"/>
<path d="M10315 6540 c-775 -195 -1718 -357 -2548 -437 l-177 -17 -85 -98
c-47 -54 -83 -98 -80 -98 22 0 385 35 575 56 778 84 1575 223 2353 410 l187
46 0 94 c0 83 -2 94 -17 93 -10 -1 -103 -23 -208 -49z"/>
<path d="M0 5940 l0 -99 32 -6 c18 -3 157 -18 308 -35 1211 -131 2391 -218
3590 -265 528 -20 1151 -37 1157 -31 3 2 -17 16 -44 29 -26 14 -91 53 -143 88
-93 62 -96 63 -170 66 -41 1 -223 7 -405 13 -336 11 -797 32 -1095 50 -404 25
-517 32 -710 46 -753 54 -1831 158 -2374 230 -162 21 -146 30 -146 -86z"/>
<path d="M11780 6019 c-1214 -157 -3046 -294 -4315 -325 l-270 -6 -90 -58
c-49 -32 -119 -75 -155 -95 l-65 -36 230 6 c1663 42 3000 130 4580 300 127 14
245 27 263 30 l32 6 0 99 0 100 -32 -1 c-18 -1 -98 -10 -178 -20z"/>
<path d="M370 5298 c-176 -62 -313 -213 -355 -390 -23 -96 -22 -3195 0 -3283
49 -192 188 -335 380 -390 73 -22 187 -18 655 20 173 14 323 25 333 25 16 0
17 20 17 286 l0 285 -77 -6 c-79 -6 -343 -20 -553 -30 -63 -3 -127 -8 -142
-10 l-28 -4 0 1464 0 1465 54 0 c47 0 342 -16 649 -35 l97 -7 0 286 0 286 -22
0 c-13 0 -165 12 -338 25 -173 14 -380 28 -460 31 -133 5 -150 3 -210 -18z
m684 -52 c169 -14 311 -27 314 -30 3 -3 3 -9 0 -12 -5 -5 -356 21 -728 52
-261 22 -491 -134 -555 -377 -22 -81 -22 -3207 0 -3289 20 -77 11 -73 -16 7
l-24 68 0 1610 0 1610 23 60 c60 158 170 267 320 316 72 24 220 21 666 -15z"/>
<path d="M11110 5299 c-355 -27 -412 -41 -545 -130 -86 -58 -163 -139 -210
-224 -65 -117 -65 -112 -65 -837 0 -570 2 -661 16 -709 62 -211 253 -372 482
-408 39 -6 190 -11 336 -11 l266 0 0 -590 0 -589 -27 4 c-16 2 -127 9 -248 16
-121 6 -223 13 -227 16 -5 2 -8 132 -8 287 l0 284 -247 6 c-137 3 -269 8 -295
11 l-48 4 0 -327 c0 -362 4 -394 62 -506 50 -95 175 -213 279 -265 109 -54
175 -66 504 -91 322 -24 373 -25 450 -5 139 37 283 152 344 276 61 125 62 139
59 893 -3 626 -5 685 -22 736 -32 97 -79 173 -156 251 -60 61 -92 84 -160 117
-123 58 -173 64 -495 56 l-275 -7 0 576 c0 455 3 577 13 577 22 0 341 19 420
25 l77 6 0 -296 0 -296 103 6 c56 3 191 8 300 11 l199 6 -4 352 c-4 302 -7
359 -22 406 -62 191 -204 327 -391 375 -73 19 -173 17 -465 -6z m493 -40 c34
-11 66 -25 72 -30 5 -5 -10 -2 -35 7 -33 13 -76 17 -160 17 -149 0 -609 -39
-680 -58 -196 -52 -378 -229 -431 -420 -11 -40 -14 -176 -14 -705 0 -590 2
-660 17 -704 20 -58 9 -50 -18 14 -18 42 -19 83 -22 703 -3 718 -3 709 55 833
40 87 166 210 263 257 105 52 171 65 440 86 332 26 435 26 513 0z"/>
<path d="M1530 3270 l0 -1982 68 6 c111 10 671 44 922 56 129 6 254 13 278 16
l42 5 0 271 0 270 -112 -6 c-62 -3 -201 -8 -308 -11 -107 -3 -216 -8 -242 -11
l-48 -6 0 1665 0 1666 -52 5 c-29 3 -132 11 -228 16 -96 6 -208 13 -247 17
l-73 6 0 -1983z m313 1919 c207 -12 261 -19 246 -33 -2 -3 -103 2 -224 9 -121
8 -232 15 -247 15 l-28 0 0 -1925 c0 -1277 -3 -1925 -10 -1925 -7 0 -10 654
-10 1941 l0 1941 23 -5 c12 -3 124 -11 250 -18z"/>
<path d="M9215 5180 c-192 -10 -414 -22 -493 -25 l-142 -7 2 -1877 3 -1876
235 -11 c129 -7 263 -12 298 -13 l62 -1 0 802 c0 441 2 799 5 797 6 -6 171
-542 356 -1159 78 -256 142 -466 143 -467 4 -4 591 -40 595 -37 2 2 -20 82
-48 176 -29 95 -61 200 -71 233 -164 537 -392 1278 -396 1288 -3 9 13 19 51
31 71 22 193 104 245 164 50 58 98 148 116 216 11 41 14 183 14 697 0 698 1
689 -55 799 -54 106 -197 221 -323 260 -94 30 -193 31 -597 10z m595 -53 c24
-12 27 -15 10 -11 -65 15 -202 15 -495 -1 -176 -9 -399 -19 -495 -23 l-175 -7
-3 -1827 c-2 -1616 -4 -1828 -17 -1828 -13 0 -15 212 -15 1838 l0 1838 413 18
c226 10 414 20 417 23 3 3 77 3 165 1 124 -3 168 -8 195 -21z m65 -27 c3 -6
-1 -7 -9 -4 -18 7 -21 14 -7 14 6 0 13 -4 16 -10z m-285 -1010 l0 -550 -202 2
-203 3 -3 542 -2 542 52 4 c29 2 122 4 206 5 l152 2 0 -550z"/>
<path d="M2960 3270 l0 -1902 38 6 c20 3 118 8 217 11 99 3 219 8 268 11 l87
6 0 1868 0 1868 -92 6 c-51 3 -169 8 -263 11 -93 3 -189 8 -212 11 l-43 5 0
-1901z m518 1833 c28 -3 52 -10 52 -15 0 -10 -22 -10 -387 9 l-123 6 0 -1842
c0 -1221 -3 -1841 -10 -1841 -7 0 -10 624 -10 1851 l0 1852 213 -7 c116 -4
236 -9 265 -13z"/>
<path d="M3690 3271 l0 -1872 103 6 c56 3 191 8 300 11 l197 6 0 794 0 794
253 0 c191 0 268 4 317 16 206 48 388 216 429 395 7 27 11 273 11 635 0 563
-1 595 -20 656 -56 183 -247 344 -452 383 -49 9 -226 17 -533 24 -253 6 -493
14 -532 17 l-73 6 0 -1871z m580 1808 c327 -7 497 -15 545 -25 71 -14 179 -53
171 -61 -2 -3 -13 0 -24 6 -64 34 -140 42 -502 51 -201 5 -440 12 -532 15
l-168 7 0 -1811 c0 -1603 -2 -1811 -15 -1811 -13 0 -15 209 -15 1825 l0 1826
33 -5 c17 -3 246 -10 507 -17z m353 -495 l77 -7 0 -524 0 -523 -202 2 -203 3
-3 528 -2 527 128 0 c71 0 163 -3 205 -6z"/>
<path d="M8070 5130 c-107 -4 -356 -11 -552 -15 l-358 -8 0 -1839 0 -1838 148
0 c81 0 275 -5 432 -10 157 -5 387 -12 513 -16 l227 -7 0 265 0 265 -127 6
c-71 4 -191 7 -269 7 -77 0 -182 3 -233 7 l-91 6 2 525 3 525 258 -2 257 -2 0
269 0 269 -257 -1 -258 -1 -3 526 -2 526 121 6 c67 4 181 7 254 7 73 0 180 3
238 7 l107 6 0 264 0 263 -107 -2 c-60 -1 -196 -5 -303 -8z m370 -40 c0 -17
-33 -19 -485 -29 -242 -6 -504 -14 -582 -17 l-143 -6 0 -1784 c0 -1581 -2
-1784 -15 -1784 -13 0 -15 204 -13 1798 l3 1797 295 8 c162 4 405 11 540 16
362 12 400 12 400 1z"/>
<path d="M5430 3270 l0 -1830 300 0 300 0 0 785 0 785 253 0 c222 0 264 3 333
20 147 38 296 145 363 263 62 108 62 112 59 789 l-3 613 -38 79 c-77 161 -250
283 -448 315 -38 7 -274 11 -591 11 l-528 0 0 -1830z m1183 1766 c32 -9 71
-23 85 -32 16 -9 19 -13 7 -9 -103 33 -143 35 -677 35 l-538 0 0 -1775 c0
-1177 -3 -1775 -10 -1775 -7 0 -10 603 -10 1788 l0 1787 543 -1 c465 -2 550
-4 600 -18z m-175 -983 l2 -523 -205 0 -205 0 0 519 0 520 38 4 c20 2 111 3
202 3 l165 -1 3 -522z"/>
<path d="M5205 1114 c-1709 -30 -3376 -136 -5000 -317 l-200 -22 -3 -103 c-2
-78 0 -102 10 -102 7 0 85 9 173 20 988 124 2197 228 3295 285 803 41 1267 54
2155 61 1694 14 3262 -54 4980 -216 315 -30 1158 -122 1285 -140 36 -5 71 -10
78 -10 10 0 12 24 10 103 l-3 102 -390 42 c-1370 148 -2700 238 -4195 283
-330 10 -1864 20 -2195 14z"/>
<path d="M5680 774 c-1062 -19 -2209 -140 -3225 -340 -307 -61 -504 -104 -812
-179 l-193 -47 0 -94 c0 -57 4 -94 10 -94 6 0 108 24 228 54 1116 279 2219
439 3502 508 298 16 1289 16 1600 0 1272 -66 2407 -230 3530 -512 110 -28 204
-50 210 -50 6 0 10 36 10 94 l0 94 -187 46 c-1164 284 -2392 457 -3603 505
-282 12 -829 19 -1070 15z"/>
</g>
</svg>
