<?xml version="1.0" standalone="no"?>
<!DOCTYPE svg PUBLIC "-//W3C//DTD SVG 20010904//EN"
 "http://www.w3.org/TR/2001/REC-SVG-20010904/DTD/svg10.dtd">
<svg version="1.0" xmlns="http://www.w3.org/2000/svg"
 width="1200.000000pt" height="521.000000pt" viewBox="0 0 1200.000000 521.000000"
 preserveAspectRatio="xMidYMid meet">

<g transform="translate(0.000000,521.000000) scale(0.100000,-0.100000)"
fill="#000000" stroke="none">
<path d="M4096 5048 c-18 -40 -307 -702 -642 -1472 -391 -898 -611 -1393 -616
-1385 -97 166 -198 308 -267 374 l-31 29 -66 -64 c-137 -135 -267 -342 -328
-523 -31 -89 -61 -231 -71 -330 l-7 -67 458 2 457 3 428 985 c236 542 445
1022 465 1068 l37 82 1357 0 1358 0 290 665 c160 366 294 675 297 685 6 20 -7
20 -1540 20 l-1546 0 -33 -72z"/>
<path d="M7415 5088 c-9 -18 -143 -325 -299 -683 l-284 -650 121 -3 c66 -1
124 1 128 5 7 7 558 1260 590 1341 l9 22 -125 0 -125 0 -15 -32z"/>
<path d="M7819 4504 c-297 -670 -297 -670 -246 -721 l27 -28 303 0 302 0 51
27 c100 52 107 65 397 719 147 332 267 607 267 612 0 4 -53 7 -119 7 l-119 0
-259 -582 -259 -583 -168 -3 c-133 -2 -167 0 -163 10 3 7 116 265 252 573 136
308 249 566 252 573 4 9 -24 12 -119 12 l-125 0 -274 -616z"/>
<path d="M9146 5112 c-6 -10 -86 -194 -86 -199 0 -2 74 -3 165 -3 91 0 165 -3
165 -6 0 -3 -112 -261 -250 -573 -137 -312 -250 -570 -250 -574 0 -4 54 -6
120 -5 l121 3 253 575 253 575 143 5 144 5 42 95 c24 52 43 98 43 103 1 10
-856 9 -863 -1z"/>
<path d="M10143 4748 c-138 -205 -346 -514 -462 -685 l-212 -313 115 0 114 0
68 103 69 102 163 3 c126 2 162 0 162 -10 0 -7 -9 -51 -20 -98 -11 -47 -20
-89 -20 -93 0 -4 55 -6 122 -5 l122 3 132 660 c73 363 136 670 139 682 5 23 5
23 -118 23 l-123 0 -251 -372z m143 -283 l-72 -290 -117 -3 c-64 -1 -117 0
-117 3 0 8 372 586 376 583 1 -2 -30 -134 -70 -293z"/>
<path d="M10865 4443 c-164 -373 -300 -681 -302 -685 -2 -5 51 -8 119 -8 l123
0 125 286 c69 158 130 288 135 291 6 2 83 2 171 1 l160 -3 -123 -280 c-67
-154 -123 -284 -123 -288 0 -4 54 -6 120 -5 l121 3 295 670 c163 369 298 676
301 683 4 10 -21 12 -118 10 l-123 -3 -127 -285 -127 -285 -166 -3 c-91 -1
-166 0 -166 3 0 2 55 127 121 277 67 150 124 279 126 286 4 9 -24 12 -119 12
l-125 0 -298 -677z"/>
<path d="M4071 3348 c-10 -24 -328 -747 -706 -1608 -378 -861 -690 -1571 -692
-1577 -4 -10 42 -13 209 -13 l214 0 185 422 186 423 421 3 421 2 24 -77 c13
-43 70 -234 128 -425 l104 -348 538 0 c423 0 537 3 537 13 -1 6 -218 734 -483
1617 l-483 1605 -292 3 -293 2 -18 -42z m5 -1569 c57 -189 107 -352 110 -361
5 -17 -12 -18 -265 -18 -149 0 -271 3 -271 6 0 5 262 611 302 700 6 13 13 22
15 20 2 -2 51 -158 109 -347z"/>
<path d="M4864 3375 c4 -12 818 -2686 870 -2858 l11 -38 73 170 73 169 -388
1284 -389 1283 -128 3 c-113 2 -128 1 -122 -13z"/>
<path d="M5568 3198 l-86 -193 779 -3 c494 -1 779 -6 779 -12 0 -5 -279 -644
-620 -1420 -341 -775 -620 -1412 -620 -1415 0 -3 513 -4 1141 -3 l1140 3 84
195 84 195 -596 3 c-469 2 -594 5 -590 15 3 6 276 631 607 1387 332 756 609
1390 616 1408 l14 32 -1323 0 -1324 0 -85 -192z"/>
<path d="M8473 3333 c-40 -92 -1125 -2577 -1130 -2591 -4 -10 22 -12 122 -10
l126 3 571 1305 c313 718 574 1315 579 1328 l9 22 -126 0 -125 0 -26 -57z"/>
<path d="M8868 3198 l-85 -193 364 -3 c223 -1 363 -6 363 -12 0 -5 -279 -644
-620 -1420 -341 -776 -620 -1413 -620 -1415 0 -3 633 -4 1407 -3 l1407 3 83
185 c45 102 83 191 83 197 0 10 -183 13 -863 15 l-863 3 623 1415 c342 778
622 1416 623 1418 0 1 -409 2 -909 2 l-908 0 -85 -192z"/>
<path d="M10943 3333 c-41 -94 -1125 -2577 -1130 -2591 -4 -10 22 -12 122 -10
l126 3 571 1305 c313 718 574 1315 579 1328 l9 22 -126 0 -125 0 -26 -57z"/>
<path d="M1600 2306 l0 -696 173 2 172 3 7 82 c27 324 170 641 402 890 47 50
86 93 86 96 0 9 -145 104 -220 145 -155 85 -382 155 -542 168 l-78 7 0 -697z"/>
<path d="M460 2523 c-199 -217 -345 -561 -362 -848 l-3 -60 453 -3 454 -2 -7
62 c-34 328 -158 604 -372 829 -47 49 -89 89 -93 89 -5 0 -36 -30 -70 -67z"/>
<path d="M94 1458 c3 -13 8 -52 11 -88 26 -265 170 -579 364 -790 l59 -65 67
65 c133 130 264 335 328 515 28 80 62 231 71 323 l7 62 -456 0 -455 0 4 -22z"/>
<path d="M1600 795 l0 -685 58 6 c207 21 384 72 541 154 86 46 241 148 241
160 0 3 -34 40 -75 83 -175 184 -295 388 -361 617 -28 96 -54 244 -54 308 l0
42 -175 0 -175 0 0 -685z"/>
<path d="M2084 1403 c16 -198 101 -431 221 -613 52 -78 171 -216 214 -248 l30
-22 48 51 c200 213 348 540 378 837 l7 72 -452 0 -453 0 7 -77z"/>
</g>
</svg>
